Coordinates
version=1
nRows=13
nColumns=36
inDegrees=yes

Units are S.I. units (second, meters, Newtons, ...)
If the header above contains a line with 'inDegrees', this indicates whether rotational values are in degrees (yes) or radians (no).

endheader
time	pelvis_tilt	pelvis_list	pelvis_rotation	pelvis_tx	pelvis_ty	pelvis_tz	hip_flexion_r	hip_adduction_r	hip_rotation_r	knee_angle_r	knee_angle_r_beta	ankle_angle_r	subtalar_angle_r	mtp_angle_r	hip_flexion_l	hip_adduction_l	hip_rotation_l	knee_angle_l	knee_angle_l_beta	ankle_angle_l	subtalar_angle_l	mtp_angle_l	lumbar_extension	lumbar_bending	lumbar_rotation	arm_flex_r	arm_add_r	arm_rot_r	elbow_flex_r	pro_sup_r	arm_flex_l	arm_add_l	arm_rot_l	elbow_flex_l	pro_sup_l
      0.00000000	      5.30495327	     -4.99591410	     -4.21003972	      0.59325196	      1.03838558	     -0.01240844	     -1.06686548	      4.04811450	      1.20807747	      7.40148858	      0.12918035	      3.33068741	     -8.61932675	     -5.54828652	     -3.13415449	     -4.55677578	      0.46875775	      8.39549478	      0.14652903	     10.89699778	     -5.18097800	     -5.54828652	     -7.88374022	      5.65615422	     -2.39329408	      6.78983577	     -5.69521256	     24.90328335	     20.19382120	     72.01528703	      0.29649501	     -6.61115760	     20.10893062	     25.57093840	     66.16535417
      0.01666670	      1.80420412	     -3.99861906	     -4.04112085	      0.59689972	      1.03084749	     -0.01464981	      2.45544719	      3.07216312	      1.13603838	      7.05115937	      0.12306595	      6.77073972	     -3.92161459	     -5.92329019	      0.49294292	     -3.64115126	      0.12230188	      7.73879557	      0.13506746	     11.26252750	     -3.01732697	     -5.92329019	     -1.82348027	      4.82727958	     -2.41777770	      4.94163721	     -5.07707715	     22.67542506	     19.60343155	     71.56327950	      0.02535632	     -6.15276514	     20.21705261	     24.19953877	     66.81669023
      0.03333330	      0.43496306	     -3.11544273	     -4.45962016	      0.59920992	      1.03173094	     -0.01451550	      3.34713790	      2.20519552	      0.39722262	      5.83169943	      0.10178236	      7.32929616	     -2.56555091	     -6.14999387	      1.94701922	     -2.79660013	     -1.24814474	      7.46995226	      0.13037526	     10.58876122	     -1.43762366	     -6.14999387	      0.53917674	      3.80970451	     -2.13597322	      4.10428527	     -4.59447293	     20.47576635	     19.63109600	     70.79608475	     -0.27046276	     -6.41198020	     19.78289953	     23.53201379	     66.82601570
      0.05000000	      0.24834685	     -2.62523049	     -4.53025650	      0.60191403	      1.03705643	     -0.01669788	      2.98007257	      1.69805415	      0.24331245	      4.81586905	      0.08405277	      7.27474597	     -1.95477122	     -6.16061860	      1.72063474	     -2.19157104	     -1.75598130	      6.71893260	      0.11726750	      9.46219825	     -0.88592838	     -6.16061860	      1.18370956	      3.22927647	     -2.10430343	      3.66010533	     -4.41484148	     19.93308710	     19.64500851	     70.84589898	     -0.46063972	     -6.73224566	     19.64994395	     23.35107471	     66.95161749
      0.06666670	      0.53405554	     -2.36858005	     -4.49899838	      0.60341084	      1.02808441	     -0.01823342	      2.38492422	      1.37572949	      0.06958825	      4.48843019	      0.07833789	      7.93673889	     -1.34235782	     -6.26365381	      1.17484328	     -1.80203939	     -1.93841992	      6.50031906	      0.11345197	      9.49584641	     -0.43891251	     -6.26365381	      1.04827389	      2.98054598	     -1.85194210	      3.18592446	     -4.30902338	     18.33441693	     20.22308646	     70.08686650	     -0.27405990	     -7.03051326	     18.90104341	     23.80153200	     66.54186095
      0.08333330	      0.75427675	     -2.15265079	     -4.47259205	      0.60723010	      1.02791354	     -0.02036316	      1.94274635	      1.05340256	     -0.04546082	      4.48793448	      0.07832923	      8.62974392	     -0.63788577	     -6.43023292	      0.77811173	     -1.42922118	     -1.97799647	      6.35462539	      0.11090914	      9.69759914	     -0.20526727	     -6.43023292	      1.04583413	      2.82268746	     -1.52681999	      2.67701578	     -4.33426731	     16.85897998	     20.74854066	     69.29618129	      0.01481988	     -7.28842398	     17.92842195	     24.19833399	     65.94531794
      0.10000000	      0.87069792	     -1.94626725	     -4.58157198	      0.60738104	      1.03393711	     -0.02217310	      1.77761718	      0.72851225	      0.04435553	      4.65636181	      0.08126884	      9.09996744	     -0.56681277	     -6.45356023	      0.57807977	     -1.08679468	     -2.18168450	      6.25376293	      0.10914875	      9.81974348	      0.05710877	     -6.45356023	      1.07570588	      2.70827717	     -1.03726148	      2.36176249	     -4.43390882	     16.29650200	     20.69338725	     69.49327273	      0.73414161	     -7.53133728	     17.15685720	     24.48520047	     65.86154376
      0.11666670	      0.94201996	     -1.80669199	     -4.44880588	      0.60322656	      1.03567000	     -0.02458146	      1.78268365	      0.38135710	      0.09512521	      4.81446474	      0.08402826	      8.98916699	     -0.57883093	     -6.45754608	      0.65923154	     -0.80676038	     -2.14708091	      6.44265497	      0.11244554	      9.84383736	      0.03735176	     -6.45754608	      0.96656124	      2.65843208	     -1.08809349	      2.43967986	     -4.60562003	     16.22468960	     20.67652543	     69.52975768	      1.64330850	     -8.17846301	     16.83282702	     24.67790904	     65.80726397
      0.13333330	      1.30610736	     -1.78750104	     -4.32271556	      0.59896338	      1.03283133	     -0.02614201	      1.65397904	      0.17390852	      0.24290134	      5.02797822	      0.08775477	      8.93966348	     -1.00090611	     -6.51167781	      0.56493341	     -0.64934337	     -1.88425097	      6.67585805	      0.11651570	      9.93328013	     -0.19173887	     -6.51167781	      0.27305255	      2.60374109	     -0.65475618	      2.44877585	     -4.90898707	     15.92742593	     20.96628110	     69.19901020	      3.05097008	     -8.87972638	     15.51409001	     25.69017460	     65.26140809
      0.15000000	      1.31620553	     -1.75143760	     -4.26061418	      0.59736911	      1.03314485	     -0.02945251	      1.98581218	     -0.00168342	      0.41671161	      5.36987405	      0.09372198	      8.73412538	     -1.52953802	     -6.64109134	      0.91119963	     -0.51553554	     -1.67182021	      7.03294612	      0.12274807	      9.78606665	     -0.35180484	     -6.64109134	      0.00422364	      2.61538167	     -1.02699460	      2.88428041	     -5.04314647	     15.63267093	     20.76359208	     69.40475129	      3.94734401	     -9.61299490	     11.44979009	     26.82586423	     64.23997560
      0.16666670	      1.52493229	     -1.79306584	     -4.24683510	      0.59435234	      1.04040316	     -0.03110854	      2.09489552	     -0.12886505	      0.42484305	      5.54128936	      0.09671374	      8.28477538	     -1.62703630	     -6.67829511	      0.95384060	     -0.43718550	     -1.60833775	      7.06672478	      0.12333761	      9.31787286	     -0.42992099	     -6.67829511	     -0.60449715	      2.69712860	     -0.95519685	      3.21131726	     -5.34827714	     15.69853672	     20.90900725	     69.69736483	      5.35981196	    -10.92742002	      9.74589900	     28.43530248	     64.12454357
      0.18333330	      1.54561758	     -1.76931319	     -4.15752137	      0.59202261	      1.04582008	     -0.03390914	      2.39232520	     -0.32433143	      0.48262172	      5.70980351	      0.09965487	      7.48001690	     -1.94412032	     -6.72752659	      1.28441224	     -0.29813134	     -1.28736820	      7.37325861	      0.12868764	      8.58563133	     -0.82146957	     -6.72752659	     -0.96635461	      2.70910220	     -1.22239896	      3.63250441	     -5.49776792	     15.50569195	     20.66903999	     69.81314207	      6.79899256	    -12.36699918	      6.61627961	     30.06541240	     63.82272469
      0.20000000	      1.68857937	     -1.70833852	     -4.06614597	      0.59315418	      1.05138459	     -0.03386734	      2.40834085	     -0.46432613	      0.42958583	      5.71007087	      0.09965954	      6.95363452	     -1.60886626	     -6.76845447	      1.41627245	     -0.14697260	     -1.36198156	      7.70383403	      0.13445727	      7.72393270	     -0.75798302	     -6.76845447	     -1.39103894	      2.62330676	     -1.40695191	      3.95568963	     -5.56138088	     15.21314454	     20.30062282	     69.74982769	      8.34388779	    -14.01918283	      3.43413493	     31.80793044	     63.55054749
